<mxfile host="app.diagrams.net" agent="Mozilla/5.0 (Windows NT 10.0; Win64; x64) AppleWebKit/537.36 (KHTML, like Gecko) Chrome/129.0.0.0 Safari/537.36" version="24.7.16">
  <diagram name="Page-1" id="Z3Z252tlPHTvEe9kUEYn">
    <mxGraphModel dx="594" dy="1578" grid="1" gridSize="10" guides="1" tooltips="1" connect="1" arrows="1" fold="1" page="1" pageScale="1" pageWidth="850" pageHeight="1100" math="0" shadow="0">
      <root>
        <mxCell id="0" />
        <mxCell id="1" parent="0" />
        <mxCell id="79cpLiDDFbO2zM0sxriB-12" value="" style="edgeStyle=orthogonalEdgeStyle;rounded=0;orthogonalLoop=1;jettySize=auto;html=1;" edge="1" parent="1" source="79cpLiDDFbO2zM0sxriB-1" target="79cpLiDDFbO2zM0sxriB-2">
          <mxGeometry relative="1" as="geometry" />
        </mxCell>
        <mxCell id="79cpLiDDFbO2zM0sxriB-1" value="Presses button to start" style="rounded=0;whiteSpace=wrap;html=1;" vertex="1" parent="1">
          <mxGeometry x="240" width="160" height="80" as="geometry" />
        </mxCell>
        <mxCell id="79cpLiDDFbO2zM0sxriB-13" value="" style="edgeStyle=orthogonalEdgeStyle;rounded=0;orthogonalLoop=1;jettySize=auto;html=1;" edge="1" parent="1" source="79cpLiDDFbO2zM0sxriB-2" target="79cpLiDDFbO2zM0sxriB-3">
          <mxGeometry relative="1" as="geometry" />
        </mxCell>
        <mxCell id="79cpLiDDFbO2zM0sxriB-2" value="Level 1 starts" style="rounded=0;whiteSpace=wrap;html=1;" vertex="1" parent="1">
          <mxGeometry x="240" y="120" width="160" height="80" as="geometry" />
        </mxCell>
        <mxCell id="79cpLiDDFbO2zM0sxriB-14" value="" style="edgeStyle=orthogonalEdgeStyle;rounded=0;orthogonalLoop=1;jettySize=auto;html=1;" edge="1" parent="1" source="79cpLiDDFbO2zM0sxriB-3" target="79cpLiDDFbO2zM0sxriB-4">
          <mxGeometry relative="1" as="geometry" />
        </mxCell>
        <mxCell id="79cpLiDDFbO2zM0sxriB-3" value="Random button sequence chosen" style="rounded=0;whiteSpace=wrap;html=1;" vertex="1" parent="1">
          <mxGeometry x="240" y="240" width="160" height="80" as="geometry" />
        </mxCell>
        <mxCell id="79cpLiDDFbO2zM0sxriB-15" value="" style="edgeStyle=orthogonalEdgeStyle;rounded=0;orthogonalLoop=1;jettySize=auto;html=1;" edge="1" parent="1" source="79cpLiDDFbO2zM0sxriB-4" target="79cpLiDDFbO2zM0sxriB-6">
          <mxGeometry relative="1" as="geometry" />
        </mxCell>
        <mxCell id="79cpLiDDFbO2zM0sxriB-4" value="Chosen button sequence shown to user" style="rounded=0;whiteSpace=wrap;html=1;" vertex="1" parent="1">
          <mxGeometry x="240" y="360" width="160" height="80" as="geometry" />
        </mxCell>
        <mxCell id="79cpLiDDFbO2zM0sxriB-9" value="" style="edgeStyle=orthogonalEdgeStyle;rounded=0;orthogonalLoop=1;jettySize=auto;html=1;" edge="1" parent="1" source="79cpLiDDFbO2zM0sxriB-6" target="79cpLiDDFbO2zM0sxriB-7">
          <mxGeometry relative="1" as="geometry" />
        </mxCell>
        <mxCell id="79cpLiDDFbO2zM0sxriB-16" value="" style="edgeStyle=orthogonalEdgeStyle;rounded=0;orthogonalLoop=1;jettySize=auto;html=1;" edge="1" parent="1" source="79cpLiDDFbO2zM0sxriB-6" target="79cpLiDDFbO2zM0sxriB-10">
          <mxGeometry relative="1" as="geometry" />
        </mxCell>
        <mxCell id="79cpLiDDFbO2zM0sxriB-6" value="User replicates sequence" style="rhombus;whiteSpace=wrap;html=1;" vertex="1" parent="1">
          <mxGeometry x="240" y="480" width="160" height="120" as="geometry" />
        </mxCell>
        <mxCell id="79cpLiDDFbO2zM0sxriB-8" style="edgeStyle=orthogonalEdgeStyle;rounded=0;orthogonalLoop=1;jettySize=auto;html=1;entryX=0;entryY=0.5;entryDx=0;entryDy=0;exitX=0.5;exitY=0;exitDx=0;exitDy=0;" edge="1" parent="1" source="79cpLiDDFbO2zM0sxriB-7" target="79cpLiDDFbO2zM0sxriB-3">
          <mxGeometry relative="1" as="geometry" />
        </mxCell>
        <mxCell id="79cpLiDDFbO2zM0sxriB-7" value="If correct, increment level" style="rounded=0;whiteSpace=wrap;html=1;" vertex="1" parent="1">
          <mxGeometry x="40" y="520" width="160" height="80" as="geometry" />
        </mxCell>
        <mxCell id="79cpLiDDFbO2zM0sxriB-11" style="edgeStyle=orthogonalEdgeStyle;rounded=0;orthogonalLoop=1;jettySize=auto;html=1;entryX=1;entryY=0.5;entryDx=0;entryDy=0;exitX=0.5;exitY=0;exitDx=0;exitDy=0;" edge="1" parent="1" source="79cpLiDDFbO2zM0sxriB-10" target="79cpLiDDFbO2zM0sxriB-1">
          <mxGeometry relative="1" as="geometry" />
        </mxCell>
        <mxCell id="79cpLiDDFbO2zM0sxriB-10" value="If incorrect, game over." style="rounded=0;whiteSpace=wrap;html=1;" vertex="1" parent="1">
          <mxGeometry x="440" y="520" width="160" height="80" as="geometry" />
        </mxCell>
      </root>
    </mxGraphModel>
  </diagram>
</mxfile>
